<?xml version="1.0" encoding="UTF-8"?>
<svg id="Layer_1" data-name="Layer 1" xmlns="http://www.w3.org/2000/svg" viewBox="0 0 690.88 306.37">
  <defs>
    <style>
      .cls-1 {
        fill: #5750a1;
      }

      .cls-2 {
        fill: #f89e1b;
      }

      .cls-3 {
        fill: #221f1f;
      }
    </style>
  </defs>
  <g>
    <path class="cls-2" d="m192.48,249.79l-3.58,1.18c.14-1.72.21-4.7.21-8.96,0-1.54-.04-2.4-.13-2.57-.08-.16-.19-.25-.34-.28-.05,0-.22-.01-.52-.01h-1.09l1.72-1.92c.17-.19.25-.36.25-.5v-.19l-.1-6.89c-.64,0-1.5-.01-2.59-.01-1.48,0-2.54.1-3.2.31.37-1.12.72-1.89,1.07-2.31.8-.13,2.39-.25,4.76-.36.17-.05.43-.17.79-.36l3.62-1.92.05,1.95c1.22.03,2.33.04,3.33.04,1.87,0,3.35-.1,4.44-.3.38-.07.85-.17,1.41-.31l1.36,3.45-2.49,1.07c-.52-.52-1.28-.85-2.26-.98-1.8-.11-3.74-.19-5.8-.25l.09,4.67v.46c0,.22-.01.75-.04,1.61,1.09.06,2.05.09,2.87.09,1.42,0,3.3-.1,5.63-.3.03.19.1.64.22,1.35.05.3.14.72.27,1.29-.24.14-.67.38-1.29.72-.64.41-1.04.67-1.2.77-.22-.41-.45-.71-.7-.89-.23-.17-.46-.26-.71-.28-.16-.03-.47-.04-.93-.04h-4.19l-.04.74c-.21,3.59-.39,6.07-.55,7.44-.11.87-.22,1.7-.33,2.5Z"/>
    <path class="cls-2" d="m209.74,231.48l.65.67c-.31.63-.46,1.13-.46,1.49,0,.29.15.66.44,1.11.05.07.2.29.44.65l-.47.9c-.3-.13-.53-.19-.68-.19-.44,0-.77.23-.99.68-.29.62-.43,1.43-.43,2.41,0,.92.28,1.66.84,2.22.36.36.83.55,1.43.55,1.32,0,2.67-.75,4.04-2.26-.02-.21-.07-.7-.15-1.46-.02-.21-.03-.45-.03-.72,0-1.7.33-3.01.99-3.93.64-.9,1.37-1.35,2.19-1.35.91,0,1.36.8,1.36,2.4,0,1.69-.39,3.2-1.18,4.54.42.95.83,1.71,1.21,2.29.34.5.72.9,1.16,1.2s.87.44,1.28.44c.22,0,.52-.08.9-.24l.33.46c-.46.61-1.13,1.28-2.01,2-.73.57-1.31.95-1.75,1.12-.8-.63-1.51-1.31-2.13-2.03-.47-.57-.93-1.37-1.37-2.4-.7.77-1.59,1.41-2.66,1.92-1.33.64-2.56.96-3.68.96s-2.15-.35-2.93-1.05c-.94-.85-1.4-2.18-1.4-4.01,0-1.96.53-4.25,1.58-6.86.19-.08.74-.31,1.67-.68.34-.14.95-.41,1.8-.83Z"/>
    <path class="cls-2" d="m220.84,232.87l2.08-.78c.29-.11.5-.16.65-.16.33,0,.83.34,1.51,1.02.5.5,1.04,1.22,1.6,2.16.72-.58,1.53-1.11,2.44-1.58,1.42-.74,2.46-1.11,3.11-1.11.42,0,.79.14,1.11.41.23.2.34.45.34.77s-.06.88-.18,1.74c-.12.85-.23,1.48-.33,1.87-.73.24-1.46.49-2.19.75-.14-.73-.28-1.27-.43-1.63-.26-.62-.5-.93-.72-.93-.19,0-.41.24-.67.71-.26.47-.5,1.06-.72,1.76-.38,1.26-.62,3.09-.73,5.49-.03.57-.06,1.29-.09,2.16-1.29.11-2.46.28-3.49.52.03-.4.05-.81.05-1.23,0-1.73-.05-3.27-.15-4.64-.07-1.11-.25-2.18-.53-3.2-.29-1.02-.64-1.86-1.07-2.51-.35-.55-.88-1.08-1.6-1.58Z"/>
    <path class="cls-2" d="m234.31,232.87l2.09-.78c.29-.11.5-.16.65-.16.33,0,.83.34,1.51,1.02.5.5,1.04,1.22,1.6,2.16.72-.58,1.53-1.11,2.44-1.58,1.42-.74,2.46-1.11,3.11-1.11.42,0,.79.14,1.11.41.23.2.34.45.34.77s-.06.88-.18,1.74c-.12.85-.23,1.48-.33,1.87-.73.24-1.46.49-2.19.75-.14-.73-.28-1.27-.43-1.63-.26-.62-.5-.93-.73-.93-.19,0-.41.24-.67.71s-.5,1.06-.72,1.76c-.37,1.26-.62,3.09-.72,5.49-.03.57-.06,1.29-.09,2.16-1.29.11-2.46.28-3.49.52.03-.4.04-.81.04-1.23,0-1.73-.05-3.27-.15-4.64-.07-1.11-.24-2.18-.53-3.2-.29-1.02-.64-1.86-1.07-2.51-.34-.55-.88-1.08-1.6-1.58Z"/>
    <path class="cls-2" d="m249.37,250.74l-1.46-3.11c1.16.33,1.88.49,2.14.5,1.07-.29,2.05-.73,2.97-1.32.91-.6,1.7-1.31,2.36-2.15l-5.53-7.94c-.3.1-.62.36-.95.8l-.53-.61c.14-.71.21-1.28.21-1.72,0-.48-.1-1.19-.31-2.13l2.93-1.08.58.25.33.5c2.7,4.23,4.56,6.98,5.56,8.25.58-.89,1.09-1.91,1.51-3.08.52-1.43.79-2.49.79-3.18,0-.62-.42-.98-1.26-1.07l2.51-2.17,2.31.61.81.96c-.59,2.77-1.73,5.58-3.42,8.42-1.69,2.82-3.41,5.09-5.18,6.8-1.16,1.12-2.38,1.91-3.65,2.35-.82.28-1.45.41-1.89.41-.22,0-.49-.1-.81-.31Z"/>
    <path class="cls-2" d="m294.69,234.51c1.12.64,2.25,1.26,3.39,1.85-.3.61-.52,1.17-.65,1.67-.24.93-.36,2.73-.36,5.41,0,1.07.05,1.9.15,2.51,1.09,0,2.56-.33,4.42-.99v.58c-.94.67-2.21,1.41-3.83,2.22-1.98.98-3.47,1.59-4.47,1.83-.29-1.59-.43-3.47-.43-5.65,0-.38,0-.95.01-1.73-.88.85-1.95,1.58-3.22,2.2-2.36,1.14-4.59,1.72-6.72,1.72s-3.74-.49-5.01-1.46c-.65-.5-1.13-1.16-1.44-1.97-.22-.57-.33-1.13-.33-1.67,0-1.83.63-3.83,1.88-5.99,1.82-3.16,4.5-5.59,8.05-7.31,2.46-1.19,4.76-1.79,6.89-1.79,1.85,0,3.97.6,6.36,1.79,1.04.52,1.95,1.09,2.71,1.7l-2.01,3.93c-1.32-1.19-2.55-2.11-3.67-2.74-1.13-.64-2.1-.95-2.91-.95-1.67,0-3.51.52-5.52,1.57-2.28,1.19-4.14,2.8-5.59,4.81-1.07,1.5-1.61,2.83-1.61,3.99,0,.82.31,1.44.93,1.86.7.47,1.59.71,2.66.71,1.65,0,3.48-.53,5.49-1.58,1.08-.57,1.99-1.2,2.71-1.88.18-.73.38-1.46.59-2.19l1.52-2.46Z"/>
    <path class="cls-2" d="m314.95,241.72c-.95,1.13-1.99,2.06-3.11,2.77-1.58,1.01-3.1,1.51-4.56,1.51-1.08,0-1.93-.27-2.53-.8-.49-.44-.74-1.03-.74-1.75,0-1.02.34-2.43,1.04-4.25,1.66-4.35,3.67-6.52,6.02-6.52.68,0,1.38.21,2.09.64.41.26.79.59,1.14.99-.11.18-.4.68-.89,1.51-.37.73-.62,1.2-.74,1.42-.72-.59-1.3-.89-1.73-.89-.48,0-1.04.5-1.67,1.49-.4.65-.74,1.38-1.01,2.19-.23.7-.34,1.23-.34,1.6,0,.45.01.76.04.93.02.1.1.15.24.15.81,0,1.69-.27,2.65-.8.94-.52,2.11-1.37,3.52-2.53-.11-.45-.16-.83-.16-1.12,0-1.49.57-3.07,1.7-4.75.77.51,1.65.98,2.63,1.39-.49,1.4-.74,2.62-.74,3.67,0,1.87.6,3.22,1.79,4.05.65.45,1.51.72,2.59.8-.62,1.22-1.7,2.2-3.24,2.93-2-.52-3.33-2.07-3.99-4.63Z"/>
    <path class="cls-2" d="m329.21,244.54l-3.82,1.61c-.68-.52-1.11-1.03-1.3-1.52-.07-.16-.13-.83-.17-2.01-.05-1.18-.07-2.48-.07-3.91,0-.38,0-.71.02-1.01v-.36c0-.71-.22-1.22-.65-1.54-.4-.27-1.13-.44-2.21-.52l.9-2.31c.34,0,.6.01.77.01.36,0,.87-.01,1.55-.04l.59-3.34,4.05-1.36c-.24.59-.43,1.13-.56,1.61-.29,1.09-.43,1.92-.43,2.49,0,.08,0,.22.03.41.38.04.64.06.77.06,1.02,0,2.15-.06,3.39-.18-.47.75-1.04,1.41-1.7,1.98-.38.31-.71.45-1.01.44-.06,0-.61.03-1.66.09-.08.94-.12,2.1-.12,3.48,0,1.52.11,3.16.33,4.93.47.4.9.73,1.29.98Z"/>
    <path class="cls-2" d="m342.66,246.45l-.51-.92c.58-.38,1.01-.81,1.27-1.29.8-1.41,1.2-3.2,1.2-5.38,0-1.66-.46-2.49-1.38-2.49-.54,0-1.15.22-1.83.65-.67.43-1.34,1.04-1.99,1.8-.82.97-1.38,1.94-1.68,2.91-.22.69-.33,1.61-.33,2.77,0,.6.03,1.23.09,1.88-1.29.15-2.41.33-3.35.55-.16-2.2-.24-4.98-.24-8.34,0-2.32.06-4.15.19-5.49-.4-.22-.84-.4-1.32-.56.47-1.53,1.1-3.17,1.88-4.93.74-1.7,1.4-2.92,1.98-3.68.22.12.72.42,1.51.9.24.15.78.45,1.61.9-.87,2.11-1.4,3.54-1.61,4.27-.24.84-.44,1.89-.61,3.14-.17,1.26-.25,2.33-.25,3.22,0,.32.02.81.06,1.48,1.3-1.71,2.54-2.98,3.73-3.82,1.33-.94,2.67-1.41,4.02-1.41,2.29,0,3.43,1.46,3.43,4.36,0,.97-.2,2.14-.61,3.51-.33,1.16-.71,2.15-1.12,2.96.28-.09.86-.28,1.75-.56.67-.21,1.36-.39,2.05-.55-.51.66-.82,1.07-.93,1.24-.44.63-.73,1.04-.87,1.23-.17,0-.29-.01-.36-.01-.87,0-2.09.27-3.66.8-.75.26-1.47.54-2.16.84Z"/>
    <path class="cls-2" d="m363.87,240.37l1.24,2.97c-.51.78-1.19,1.38-2.04,1.8-1.37.67-2.91,1.01-4.63,1.01-1.24,0-2.37-.2-3.37-.59s-1.79-.95-2.37-1.67c-.84-1.04-1.26-2.37-1.26-4.01,0-.91.15-1.83.44-2.77s.69-1.71,1.17-2.31c.65-.82,1.55-1.46,2.69-1.94.91-.38,1.85-.56,2.82-.56,1.74,0,3.09.51,4.07,1.52.56.58.84,1.32.84,2.2,0,1.23-.41,2.32-1.23,3.25-.98,1.11-2.32,1.67-4.04,1.67s-2.76-.71-2.99-2.13c.88-.4,1.54-.78,2-1.12.43.49.85.74,1.24.74.43,0,.8-.21,1.11-.64.28-.36.41-.81.41-1.33,0-.64-.17-1.14-.5-1.49-.38-.39-.88-.59-1.51-.59-.75,0-1.37.32-1.86.95-.68.86-1.02,1.97-1.02,3.33s.33,2.46.98,3.3c.47.6,1.09,1.04,1.85,1.32.42.15.86.22,1.29.22,1.17,0,2.23-.42,3.17-1.27.46-.42.96-1.04,1.5-1.86Z"/>
    <path class="cls-2" d="m364.4,233l2.08-.78c.29-.11.51-.16.65-.16.33,0,.83.34,1.51,1.02.5.5,1.03,1.22,1.6,2.16.72-.58,1.53-1.11,2.44-1.58,1.42-.74,2.46-1.11,3.11-1.11.42,0,.79.14,1.11.41.23.2.34.45.34.77s-.06.88-.18,1.74c-.12.85-.23,1.48-.33,1.87-.73.24-1.46.49-2.19.75-.14-.73-.28-1.27-.43-1.63-.26-.62-.5-.93-.72-.93-.19,0-.41.24-.67.71-.26.47-.5,1.06-.72,1.76-.37,1.26-.62,3.09-.73,5.49-.03.57-.06,1.29-.09,2.16-1.29.11-2.46.28-3.49.52.03-.4.04-.81.04-1.23,0-1.73-.05-3.27-.15-4.64-.07-1.11-.25-2.18-.53-3.2-.29-1.02-.64-1.86-1.07-2.51-.34-.55-.88-1.08-1.6-1.58Z"/>
    <path class="cls-2" d="m382.71,232.78l.03,5.59c.01,1.21-.05,2.6-.18,4.17-.05.79-.2,1.73-.46,2.81l-3.08,1.04c.18-1.73.27-3.85.27-6.38,0-1.84-.12-3.85-.34-6.01.97-.26,2.22-.67,3.76-1.23Zm-.27-2.9h-2.72c.46-.99.76-1.64.87-1.97.38-1.04.63-1.67.74-1.91.2,0,.68-.01,1.45-.01.31,0,.9-.04,1.74-.12l-.22.41c-1.02,1.88-1.64,3.08-1.86,3.59Z"/>
    <path class="cls-2" d="m404.5,241.18l-.96,1.82c-.37.15-1.05.41-2.04.78-1.38.51-2.19.88-2.43,1.11-.08.07-.27.26-.56.58-.48.49-1,.77-1.55.84-.94-.45-1.41-1.06-1.41-1.82,0-.88.68-1.51,2.03-1.91.24-1.54.36-2.62.36-3.24,0-1.93-.63-2.9-1.89-2.9-1.39,0-2.83,1.7-4.32,5.09-.74,1.69-1.36,3.58-1.85,5.68l-3.25-1.27c.61-1.21.92-2.76.92-4.64,0-1.61-.13-3.07-.4-4.39-.24-1.19-.49-1.91-.76-2.16-.22-.2-.46-.3-.74-.3-.19,0-.41.05-.67.16l-.43-.87c1.47-.9,2.91-1.7,4.32-2.41,1.29,1.41,2,3.43,2.12,6.06.85-1.49,1.68-2.61,2.5-3.36.6-.55,1.35-.98,2.25-1.29.59-.2,1.17-.3,1.75-.3.51,0,1.02.11,1.52.32.5.21.89.5,1.18.85.84.98,1.26,2.37,1.26,4.19,0,1.33-.28,2.81-.84,4.42.89-.15,2.19-.5,3.92-1.05Z"/>
    <path class="cls-2" d="m407.07,248.17l3.24-1.23c.47,1.27,1.01,1.91,1.61,1.91.34,0,.73-.1,1.17-.29.43-.19.8-.43,1.11-.72.56-.53,1-1.26,1.32-2.2.32-.93.48-1.94.48-3.02,0-.22-.01-.55-.03-.99-.98.95-2.01,1.7-3.09,2.26-1.68.88-3.32,1.32-4.91,1.32-1.71,0-2.56-.96-2.56-2.88s.7-4.1,2.1-6.36c.92-1.48,1.84-2.49,2.76-3.02.42-.25,1.03-.37,1.81-.37,1.16,0,2.07.3,2.74.9-.34.57-.57,1.01-.71,1.32-.4.83-.64,1.33-.72,1.51-.73-.28-1.27-.41-1.63-.41s-.66.18-.93.55c-.38.51-.71,1.2-.98,2.06-.27.83-.4,1.51-.4,2.06,0,.86.32,1.29.95,1.29.45,0,1.1-.19,1.94-.57.84-.38,1.72-.87,2.63-1.49.44-.31.7-.59.79-.86.09-.27.13-.62.13-1.07,0-2.31-.37-4.67-1.12-7.1,1.39.38,2.77.6,4.13.68.61,1.68.91,4.24.91,7.69,0,4.82-.74,8.08-2.23,9.78-.99,1.13-2.47,1.89-4.44,2.28-.81.16-1.75.24-2.82.24-.94,0-1.57-.17-1.91-.52-.51-.54-.96-1.46-1.33-2.74Z"/>
    <path class="cls-2" d="m230.1,259.08l.03,5.59c.01,1.21-.05,2.6-.18,4.17-.05.79-.2,1.73-.46,2.81l-3.08,1.04c.18-1.73.27-3.85.27-6.38,0-1.84-.11-3.85-.34-6.01.97-.26,2.22-.67,3.76-1.23Zm-.27-2.9h-2.72c.47-.99.76-1.64.87-1.97.38-1.04.63-1.67.74-1.91.2,0,.68-.01,1.45-.01.31,0,.9-.04,1.75-.12l-.22.41c-1.01,1.88-1.64,3.08-1.86,3.59Z"/>
    <path class="cls-2" d="m251.89,267.48l-.96,1.82c-.36.15-1.04.41-2.04.78-1.38.51-2.19.88-2.43,1.11-.08.07-.27.26-.56.58-.48.49-1,.77-1.55.84-.94-.45-1.41-1.06-1.41-1.82,0-.88.68-1.51,2.03-1.91.24-1.54.36-2.62.36-3.24,0-1.93-.63-2.9-1.89-2.9-1.39,0-2.83,1.7-4.32,5.09-.74,1.69-1.36,3.58-1.85,5.68l-3.25-1.27c.61-1.21.92-2.76.92-4.64,0-1.61-.13-3.07-.4-4.39-.24-1.19-.49-1.91-.76-2.16-.22-.2-.46-.3-.74-.3-.19,0-.41.05-.66.16l-.43-.87c1.47-.9,2.91-1.7,4.32-2.41,1.29,1.41,2,3.43,2.12,6.06.85-1.49,1.68-2.61,2.5-3.36.6-.55,1.35-.98,2.25-1.29.59-.2,1.18-.3,1.75-.3.51,0,1.02.11,1.52.32.5.21.89.5,1.18.85.84.98,1.26,2.37,1.26,4.19,0,1.33-.28,2.81-.84,4.42.89-.15,2.19-.5,3.92-1.05Z"/>
    <path class="cls-2" d="m287.46,259.35l-2.69,1.17c.14,1,.21,1.88.21,2.66,0,1.6-.26,3.07-.77,4.42-.52,1.35-1.26,2.48-2.21,3.39-1.63,1.56-3.63,2.34-6.02,2.34s-4.38-.82-5.86-2.47c-1.67-1.85-3.22-4.82-4.67-8.9-.6-1.68-1.21-3.65-1.83-5.92-.95-.02-2.08.25-3.39.81l-.41-.64c.79-.62,1.83-1.26,3.11-1.91,1.28-.65,2.8-1.31,4.54-1.98,1.23,5.38,2.52,9.41,3.86,12.07,1.07,2.12,2.09,3.55,3.08,4.29.8.6,1.64.9,2.53.9.62,0,1.25-.14,1.87-.42.62-.28,1.12-.64,1.5-1.07.83-.96,1.24-2.49,1.24-4.62,0-1.55-.25-2.93-.76-4.14-1.09-.33-2.11-1.03-3.03-2.12-.92-1.1-1.42-2.21-1.51-3.33.63-.42,1.31-.81,2.04-1.15,1.21.12,2.31.65,3.28,1.58.9.87,1.65,1.96,2.26,3.28.18.11.76.39,1.73.86.98.46,1.61.76,1.91.89Z"/>
    <path class="cls-2" d="m292.14,259.08l.03,5.59c.01,1.21-.05,2.6-.18,4.17-.05.79-.2,1.73-.46,2.81l-3.08,1.04c.18-1.73.27-3.85.27-6.38,0-1.84-.11-3.85-.34-6.01.97-.26,2.22-.67,3.76-1.23Zm-.27-2.9h-2.72c.47-.99.76-1.64.87-1.97.38-1.04.63-1.67.74-1.91.2,0,.68-.01,1.45-.01.31,0,.9-.04,1.75-.12l-.22.41c-1.01,1.88-1.64,3.08-1.86,3.59Z"/>
    <path class="cls-2" d="m306.67,266.71l1.24,2.97c-.51.78-1.19,1.38-2.04,1.8-1.37.67-2.92,1.01-4.63,1.01-1.24,0-2.37-.2-3.37-.59-1.01-.39-1.79-.95-2.37-1.67-.84-1.04-1.26-2.37-1.26-4.01,0-.91.15-1.83.44-2.77s.69-1.71,1.17-2.31c.65-.82,1.55-1.46,2.69-1.94.91-.38,1.85-.56,2.83-.56,1.73,0,3.09.51,4.07,1.52.56.58.84,1.32.84,2.2,0,1.23-.41,2.32-1.23,3.25-.98,1.11-2.32,1.67-4.04,1.67s-2.76-.71-2.99-2.13c.88-.4,1.54-.78,2-1.12.44.49.85.74,1.24.74.44,0,.8-.21,1.11-.64.27-.36.41-.81.41-1.33,0-.64-.17-1.14-.5-1.49-.38-.39-.88-.59-1.51-.59-.75,0-1.37.32-1.86.95-.68.86-1.02,1.97-1.02,3.33s.33,2.46.98,3.3c.47.6,1.09,1.04,1.85,1.32.42.15.85.22,1.29.22,1.18,0,2.23-.42,3.17-1.27.47-.42.96-1.04,1.5-1.86Z"/>
    <path class="cls-2" d="m316.11,270.84l-3.82,1.61c-.68-.52-1.12-1.03-1.3-1.52-.07-.16-.13-.83-.17-2.01-.05-1.18-.07-2.48-.07-3.91,0-.38,0-.71.01-1.01v-.36c0-.71-.22-1.22-.65-1.54-.39-.27-1.13-.44-2.2-.52l.9-2.31c.35,0,.6.01.77.01.36,0,.87-.01,1.55-.04l.59-3.34,4.05-1.36c-.25.59-.44,1.13-.56,1.61-.29,1.09-.43,1.92-.43,2.49,0,.08.01.22.03.41.38.04.64.06.77.06,1.03,0,2.15-.06,3.39-.18-.47.75-1.04,1.41-1.7,1.98-.37.31-.71.45-1.01.44-.06,0-.61.03-1.66.09-.08.94-.12,2.1-.12,3.48,0,1.52.11,3.16.33,4.93.47.4.9.73,1.29.98Z"/>
    <path class="cls-2" d="m338.93,267.48l-.96,1.82c-.37.15-1.05.41-2.04.78-1.38.51-2.19.88-2.43,1.11-.08.07-.27.26-.56.58-.48.49-1,.77-1.55.84-.94-.45-1.41-1.06-1.41-1.82,0-.88.68-1.51,2.03-1.91.24-1.54.36-2.62.36-3.24,0-1.93-.63-2.9-1.89-2.9-1.39,0-2.83,1.7-4.32,5.09-.74,1.69-1.36,3.58-1.85,5.68l-3.25-1.27c.61-1.21.92-2.76.92-4.64,0-1.61-.13-3.07-.4-4.39-.24-1.19-.49-1.91-.76-2.16-.22-.2-.46-.3-.74-.3-.19,0-.41.05-.66.16l-.43-.87c1.47-.9,2.91-1.7,4.32-2.41,1.29,1.41,2,3.43,2.12,6.06.85-1.49,1.68-2.61,2.5-3.36.6-.55,1.35-.98,2.25-1.29.59-.2,1.18-.3,1.75-.3.51,0,1.02.11,1.52.32.5.21.89.5,1.18.85.84.98,1.26,2.37,1.26,4.19,0,1.33-.28,2.81-.84,4.42.89-.15,2.19-.5,3.92-1.05Z"/>
    <path class="cls-2" d="m350.1,268.02c-.96,1.13-1.99,2.06-3.11,2.77-1.58,1.01-3.1,1.51-4.56,1.51-1.08,0-1.93-.27-2.53-.8-.49-.44-.74-1.03-.74-1.75,0-1.02.34-2.43,1.04-4.25,1.67-4.35,3.67-6.52,6.02-6.52.68,0,1.38.21,2.09.64.41.26.79.59,1.14.99-.11.18-.41.68-.89,1.51-.38.73-.62,1.2-.74,1.42-.72-.59-1.3-.89-1.73-.89-.48,0-1.04.5-1.67,1.49-.41.65-.74,1.38-1.01,2.19-.23.7-.34,1.23-.34,1.6,0,.45.01.76.05.93.02.1.1.15.24.15.81,0,1.69-.27,2.65-.8.94-.52,2.11-1.37,3.52-2.53-.11-.45-.16-.83-.16-1.12,0-1.49.57-3.07,1.7-4.75.77.51,1.65.98,2.63,1.39-.49,1.4-.74,2.62-.74,3.67,0,1.87.6,3.22,1.79,4.05.65.45,1.51.72,2.59.8-.62,1.22-1.7,2.2-3.24,2.93-2-.52-3.33-2.07-3.99-4.63Z"/>
    <path class="cls-2" d="m383.37,267.76l-.8,1.54c-1,.38-2.37.94-4.13,1.66-.78.99-1.51,1.48-2.21,1.48-.47,0-.89-.18-1.26-.55-.34-.35-.52-.79-.52-1.35,0-.97.65-1.54,1.95-1.73.45-1.04.68-2.1.68-3.2s-.23-1.94-.68-2.44c-.3-.33-.66-.49-1.11-.49-.47,0-.95.17-1.43.49-.48.33-.9.79-1.28,1.38-.73,1.13-1.27,2.43-1.61,3.88-.08.35-.23,1.17-.44,2.47l-3.21-.58c.29-1.95.43-3.49.43-4.62,0-1.81-.36-2.72-1.08-2.72-.45,0-.92.3-1.39.91-.47.61-1.02,1.61-1.65,3.02-.63,1.39-1.39,3.53-2.28,6.42l-3.21-1.41c.77-1.18,1.15-2.53,1.15-4.04,0-.35-.03-.91-.1-1.69s-.13-1.3-.18-1.57c-.33-1.66-.52-2.64-.6-2.96-.07-.32-.17-.59-.29-.81-.2-.38-.51-.56-.95-.56-.14,0-.32.02-.55.07l-.09-.8c.52-.29,1.2-.65,2.04-1.09.97-.5,1.52-.8,1.67-.9.2-.11.32-.16.37-.16.37,0,.83.93,1.37,2.78.29.95.52,2.02.7,3.21.88-1.21,1.45-1.97,1.73-2.28,1.25-1.37,2.56-2.06,3.93-2.06,1.05,0,1.84.46,2.38,1.39.31.53.56,1.22.75,2.07,1.62-2.49,3.31-3.73,5.09-3.73,1.19,0,2.15.47,2.88,1.42.67.88,1.01,2.12,1.01,3.74s-.3,3.1-.9,4.53l3.77-.75Z"/>
  </g>
  <path class="cls-1" d="m236.74,116.03c.94,1.04,1.22,2.55.65,3.84-1.26,2.84-1.88,5.17-1.86,7.01.01,1.26.32,2.56.94,3.92.61,1.35,1.66,3.14,3.12,5.34l1.46,1.95-2.85,5.47c-1.09-.55-1.91-.91-2.45-1.06-.55-.15-1.12-.24-1.73-.27-2.55-.13-4.58,1.46-6.07,4.78-1.5,3.32-2.22,7.99-2.16,14,.05,5.13,1.37,9.28,3.95,12.47,2.57,3.17,5.84,4.8,9.8,4.89,4.05.1,7.96-.9,11.72-3,3.74-2.09,7.64-5.45,11.69-10.06l-.18-2.38-.72-6.43c-.12-.61-.18-1.29-.18-2.02,0-.73,0-1.53,0-2.38-.01-4.53.44-8.73,1.36-12.61.92-3.88,2.19-7.21,3.81-10,1.61-2.78,3.52-4.9,5.71-6.36,2.18-1.45,4.59-2.08,7.21-1.9,2.61.18,4.54,1.44,5.78,3.76,1.24,2.33,1.85,6.03,1.84,11.1,0,4.71-.6,9.4-1.79,14.1-1.03,4.09-2.39,7.83-4.06,11.22-.47.95-.52,2.06-.1,3.03,3.24,7.58,6.34,13.08,9.3,16.55,3.14,3.68,6.46,5.54,9.96,5.61,1.2.02,2.83-.41,4.9-1.31l1.77,2.66c-1.09,1.62-2.53,3.34-4.33,5.18-1.8,1.84-3.66,3.63-5.58,5.37-1.92,1.74-3.82,3.27-5.69,4.61-.84.6-1.63,1.11-2.36,1.53-1.36.79-3.07.66-4.24-.39-2.02-1.79-3.79-3.47-5.32-5.06-1.97-2.04-3.69-4.05-5.16-6.04-1.48-1.99-2.79-4.08-3.93-6.26-.44-.83-.86-1.7-1.28-2.62-1-2.18-3.8-2.92-5.61-1.34-1.24,1.08-2.56,2.12-3.97,3.12-2.9,2.07-6.01,3.86-9.33,5.38-3.34,1.53-6.74,2.7-10.17,3.51-3.45.82-6.75,1.2-9.88,1.17-8.33-.1-14.83-2.88-19.44-8.39-4.65-5.55-7.06-13.39-7.2-23.53-.09-6.48.6-13.13,2.07-19.95,1.47-6.82,3.84-14.42,7.09-22.79l1.85-.84,8.29-2.89c1.22-.42,2.66-.96,4.31-1.61,1.16-.45,2.59-1.04,4.31-1.76,1.41-.59,3.06-.23,4.08.9l.69.76Z"/>
  <path class="cls-1" d="m319.01,115.59c.56-.15,1.2-.26,1.91-.33.71-.07,1.23-.07,1.55-.02,1.82.29,4.1,2.42,6.83,6.37,2.1,3.03,4.11,6.59,6.02,10.66.9,1.91-1.67,2.09,4.87-7.39.94-1.36,4.36-5.67,5.93-6.46,2.86-1.44,5.66-2.66,8.41-3.64,2.73-.98,5.28-1.71,7.63-2.21,2.35-.49,4.22-.63,5.62-.41,1.99.32,3.61,1.2,4.87,2.66,1.25,1.45,1.78,3.13,1.57,5.03-.1.9-.31,2.23-.65,4-.34,1.77-.74,3.64-1.2,5.63-.46,1.98-.94,3.91-1.44,5.79-.5,1.88-.95,3.3-1.35,4.27-1.23.29-2.29.52-3.16.68-.88.17-1.68.35-2.4.53-.73.19-1.54.39-2.42.62-.89.22-1.96.54-3.22.95-.32-4.76-.83-8.47-1.53-11.11-.7-2.65-1.61-4.06-2.72-4.22-.91-.13-2.17,1.06-3.77,3.57-1.61,2.52-3.17,5.71-4.71,9.58-.86,2.33-1.66,4.79-2.39,7.37-.73,2.58-2.68,18.44-3.32,21.72-.64,3.28-1.31,7.07-2,11.38-.56,3.49-1.13,7.47-1.68,11.94-.22,1.77-1.69,3.15-3.48,3.18-2.01.03-4.12.12-6.33.28-3.4.24-6.34.53-8.82.87.25-1.48.42-2.62.49-3.42.08-.81.2-2.01.35-3.62,1.01-10.36,1.58-19.33,1.73-26.88.14-7.58-.19-14.13-1.01-19.64-.82-5.53-2.22-10.27-4.18-14.22-1.14-2.29-2.48-4.45-4.01-6.46-1.54-2.04-.42-5.01,2.07-5.61l5.93-1.45Z"/>
  <g>
    <path class="cls-1" d="m534.31,149.18c-.12,6.25-.23,11.55-.34,15.93-.11,4.37-.29,8.27-.54,11.71-.25,3.44-.55,6.57-.9,9.42-.25,2.05-.57,4.13-.95,6.22-.27,1.51-1.24,2.8-2.56,3.45l-5.99,2.95c-3.1,1.53-6.63-.98-6.42-4.61.2-3.44.35-7.22.46-11.33.2-7.61.3-15.24.31-22.88,0-6.85-.12-13.31-.37-19.38-.25-6.08-.67-12.99-1.28-20.74,1.61-.5,3.02-.98,4.22-1.43,1.2-.44,2.45-.96,3.75-1.53,1.29-.58,2.76-1.25,4.4-2.02,1.63-.77,3.69-1.72,6.15-2.86l.05,37.1Z"/>
    <path class="cls-1" d="m518.86,95.09c-1.82,1.1-4.16,4.42-4.62,8.24-.46,3.81.92,7.06,2.93,7.22,2.01.16,4.32-3.38,6.45-3.71,2.13-.33,5.35.8,7.54-.83,2.18-1.63-1.65-7.63-4.3-9.7-2.66-2.08-5.11-2.96-7.99-1.22Z"/>
    <path class="cls-1" d="m530.82,88.35c-1.31-.55-2.9.55-3.57,2.44-.67,1.89-.15,3.86,1.16,4.41,1.31.55,2.91-.53,3.58-2.42.67-1.89.14-3.88-1.17-4.43Z"/>
    <path class="cls-1" d="m516.23,94.42c1.53-1.01,1.61-3.65.09-5.85-1.49-2.22-3.91-3.19-5.41-2.17-1.5,1.02-1.52,3.62-.03,5.81,1.51,2.18,3.83,3.21,5.36,2.21Z"/>
    <path class="cls-1" d="m511.29,95.93c-1.62-1.13-3.62-1.03-4.33.14-.7,1.17-.02,3.05,1.62,4.16,1.63,1.12,3.57,1.07,4.32-.11.75-1.18.03-3.06-1.6-4.19Z"/>
    <path class="cls-1" d="m525.32,87.47c-.27-2.65-1.99-4.72-3.82-4.61-1.83.1-3.09,2.33-2.82,4.96.3,2.62,1.91,4.71,3.72,4.63,1.81-.08,3.14-2.31,2.92-4.98Z"/>
  </g>
  <g>
    <polygon class="cls-2" points="613.43 123.99 605.14 115.72 593.62 117.86 598.93 107.41 593.33 97.12 604.91 98.94 612.97 90.44 614.81 102.01 625.39 107.05 614.96 112.38 613.43 123.99"/>
    <path class="cls-1" d="m668.5,19.34c-10.77,14.19-16.5,17.76-19.32,37.07-3.1,21.22-12.74,78.73-64.02,118.7-44.17,22.28,43.39-160.48-7.81-152.6-18.34,2.82-78.56,59.49-32.56,47.26.55-.15,1.37-.57,2.03-.9,6.18-3.76,16.11-8.68,25.97-28.21,3.9-12.03,1.71,11.84-15.89,25.99,30.3,4-19.13,97.51,3.11,123.45,22.24,25.94,81.69-51.41,96.34-101.3,14.65-49.89,6.91-29.85,21.01-51.71,18.32-30.17,20.4-56.35-8.88-17.75Z"/>
  </g>
  <path class="cls-3" d="m176.74,219.36c70.12-.51,152.62-.43,222.82-.21,0,0,31.83.21,31.83.21.1.1-254.76.1-254.65,0h0Z"/>
  <path class="cls-1" d="m689.24,96.1c-.25.3-4.86,6.55-6,8.11,0,0-1.78,2.61-2.82,4.2-20.66,31.78-50.36,72.72-88.92,96.73-23.6,14.69-73.04,22.22-92.31,22.22-7.02,0-11.51-1.51-12.64-4.26-.86-2.1-1.11-8.72,15.13-24.73.81-.8,1.03-2.03.55-3.07-.44-.96-1.41-1.57-2.46-1.57-.08,0-10.85.97-10.85.97-.41.04-.81.17-1.17.38-.51.31-.87.45-1.19.45-.22,0-.41-.06-.62-.19-5.6-7.23,3.03-55.1,5.76-65.72,1.08-5.71-3.19-10.22-8.58-12.48-.27-.12-.57-.24-.87-.36-.17-.06-.34-.14-.51-.2-5.22-1.98-14.72-3.76-27.39,1.59-9.63,4.07-17.39,11.18,5.68,13.31,1.77.16,3.38.2,4.93.18-.59,2.38-.98,4.49-1.23,5.88-4.88,27.12-16.13,30.34-26.05,33.19l-.73.21c-2.21.63-4.83.78-7.38.91l-1.73.1c-.56.04-1.1.05-1.63.05-8.75,0-14.4-4.74-16.8-14.09-6.91-26.91,17.11-85.67,64.13-111.55,3.42-1.32,8.59-1.37,14.06-1.42,10.37-.1,22.12-.21,29.45-8.6.25-.3.44-.64.56-1.02.8-2.73,1.41-5.38.07-7.69-1.73-2.98-5.48-3.86-14.54-5.99l-2.2-.49c-1.68-.15-3.42-.23-5.2-.23-35.28,0-97.8,32.26-115.42,119.25-.52,10.55.14,20.75,2,30.44,4.73,18.66,18.78,29.36,38.53,29.36h.01c15.42,0,31.85-6.65,41.05-16.72.06-.07.11-.15.16-.22-.03,1.77-.26,4.37-.7,7.79-.11.86-.2,1.57-.24,2.01-.64,7.29-1.75,13.25-2.72,18.51-2.86,15.46-4.6,24.79,14.67,33.93,3.09,1.47,8.92,2.31,16.01,2.31,5.37,0,11-.5,16.62-1.51,68.18-11,134.75-35.78,179.68-135.48.6-1.33,5.25-16.18,3.86-14.5Z"/>
  <g>
    <path class="cls-1" d="m276.91,24.86s-11.47-13.93-13.7-16.63c-2.23-2.7-5.81-.78-5.81-.78-6.54,4.33-24.77,9.06-24.77,9.06,0,0-4.74,1.2-22,5.1l1.81-8.16c.39-4.87-4.7-4.59-4.7-4.59l-33.97,22.33s-.05.06-.08.1l-16.66,4.8s-36.9,10.03-39.53,12.6c-2.63,2.57-2.5,19.29-2.5,19.29,5.09-4.61,45.08-13.28,45.34-13.31.06,0,8.72-1.77,12.05-2.54l-8.32,43.2c-5.42,1.49-15.15,4.61-17.48,8.56-.96,1.63-4.03,9.37-5.24,11.75-1.28,2.52-1.54,4.05-.07,5.89,1.47,1.84,3.84,1.38,3.84,1.38,1.38-.49,4.01-.86,4.01-.86l10.08-2.27-6.44,28.11s0-.02,0-.02c-11.86,46.87-27.09,54.45-90.45,65.34l-22.05,4.64C6.53,224.64.53,253.29,0,262.87c6.12-4.41,4.18-6.94,18.38-9.57-14.04,17.39-16.9,34.88-6.48,53.07,16.14-39.54,54.93-26.22,95.74-39.68,44.83-12.3,56.35-56.27,71.69-110.95.1-.37.15-.66.22-.98,3.78-13.34,7.72-28.82,11.45-44.39l.24-.07,37.47-5.7c9.99-1.4,14.14.48,17.39,1.9,3.26,1.42,4.72-.19,4.72-.19l10.82-8.09c2.07-2.44.45-5,.45-5,0,0-11.2-14.14-13.38-16.89-2.18-2.75-5.79-.89-5.79-.89-6.62,4.21-24.94,8.59-24.94,8.59,0,0-4.73,1.1-21.91,4.64,3.9-17.02,7.32-32.81,9.8-44.49l37.87-7.32c9.97-1.59,14.14.21,17.43,1.57,3.28,1.36,4.72-.28,4.72-.28l10.67-8.29c2.03-2.48.35-5,.35-5ZM12.1,293.23c-4.46-13.07,4.44-28.21,31.09-47.48-11.15-2.57-21.93-.64-32.85,3.41,8.09-22.89,43.15-31.51,92.55-33.61-25.36,7.38-19.22,11.83-2.81,13.27-25.66,5.66-29,14.06-.47,9.27-18.39,9.64-3.89,15.34,12.48,15.19-24.37,16.11-68.11-5.33-100,39.94Z"/>
    <path class="cls-1" d="m224.83,13.84c-.08.99-.27,3.35,0,0h0Z"/>
    <path class="cls-1" d="m224.86,13.46c-.01.17-.02.24-.03.38.02-.21.03-.38.03-.38Z"/>
  </g>
</svg>